<?xml version="1.0" encoding="utf-8"?>
<!-- Generator: Adobe Illustrator 27.0.1, SVG Export Plug-In . SVG Version: 6.00 Build 0)  -->
<svg version="1.1" xmlns="http://www.w3.org/2000/svg" xmlns:xlink="http://www.w3.org/1999/xlink" x="0px" y="0px"
	 viewBox="0 0 396.85 278.73" style="enable-background:new 0 0 396.85 278.73;" xml:space="preserve">
<style type="text/css">
	.st0{fill:none;}
	.st1{fill:#EC6608;}
</style>
<g id="bounding_box">
	<rect class="st0" width="396.85" height="278.73"/>
</g>
<g id="Logo">
	<g>
		<g>
			<path class="st1" d="M340.16,91.21c0-4.92-0.75-9.49-2.24-13.69c-1.5-4.2-3.69-7.87-6.58-11.01c-2.89-3.14-6.46-5.58-10.71-7.32
				c-3.52-1.44-7.51-2.25-11.91-2.5l-5.98,5.98h3.16c5.05,0,9.17,1.23,12.37,3.69c3.2,2.46,5.56,5.84,7.09,10.13
				c1.52,4.29,2.28,9.2,2.28,14.7s-0.7,10.41-2.1,14.7c-1.4,4.29-3.69,7.67-6.86,10.13c-3.17,2.46-7.43,3.69-12.79,3.69h-12.1
				c-0.8,0-1.33-0.08-1.59-0.26c-0.26-0.17-0.39-0.64-0.39-1.41V73.59L281.2,84.21v33.63c0,0.71-0.06,1.2-0.18,1.48
				c-0.12,0.28-0.54,0.42-1.25,0.42h-7.06c-0.71,0-1.16,0.11-1.36,0.32c-0.2,0.22-0.3,0.69-0.3,1.43v2.77
				c0,0.68,0.11,1.11,0.34,1.29c0.23,0.18,0.68,0.28,1.36,0.28H306c5.29,0,10.04-0.87,14.24-2.61c4.2-1.74,7.79-4.18,10.76-7.32
				c2.97-3.14,5.24-6.81,6.81-11.01C339.37,100.69,340.16,96.13,340.16,91.21"/>
		</g>
		<polygon points="97.88,56.72 97.88,83.8 71.06,83.8 71.06,56.72 56.69,56.72 56.69,125.83 71.06,125.83 71.06,96 97.88,96 
			97.88,125.83 112.2,125.83 112.2,56.72 		"/>
		<polygon points="120.82,56.72 120.82,68.91 139.21,68.91 139.21,125.83 153.58,125.83 153.58,68.91 171.97,68.91 171.97,56.72 		
			"/>
		<polygon points="257.22,56.72 245.26,107.59 232.29,56.72 218.71,56.72 205.69,107.59 193.74,56.72 179.61,56.72 196.89,125.83 
			213.2,125.83 225.43,77.32 237.73,125.74 259.58,103.89 271.35,56.72 		"/>
	</g>
	<g>
		<polygon points="58.33,160.33 65.71,160.33 65.71,166.95 67.35,166.95 67.35,152.89 65.71,152.89 65.71,158.88 58.33,158.88 
			58.33,152.89 56.7,152.89 56.7,166.95 58.33,166.95 		"/>
		<path d="M78.38,156.86c-0.72-0.43-1.56-0.64-2.52-0.64c-1.01,0-1.87,0.21-2.6,0.64c-0.73,0.43-1.29,1.05-1.68,1.86
			c-0.39,0.81-0.59,1.79-0.59,2.95c0,0.87,0.12,1.64,0.35,2.32c0.23,0.68,0.56,1.25,0.99,1.72c0.43,0.47,0.93,0.83,1.52,1.07
			c0.59,0.25,1.23,0.37,1.94,0.37c0.76,0,1.43-0.12,2.03-0.37c0.6-0.25,1.11-0.6,1.53-1.07c0.42-0.47,0.75-1.04,0.97-1.72
			c0.22-0.68,0.34-1.45,0.34-2.32c0-1.15-0.2-2.13-0.6-2.94C79.66,157.91,79.1,157.29,78.38,156.86z M78.67,163.86
			c-0.22,0.62-0.57,1.1-1.04,1.44c-0.47,0.34-1.07,0.51-1.8,0.51c-0.74,0-1.34-0.17-1.81-0.51c-0.47-0.34-0.81-0.82-1.04-1.44
			c-0.22-0.62-0.34-1.36-0.34-2.2c0-1.28,0.26-2.29,0.76-3.01c0.51-0.72,1.31-1.09,2.41-1.09c0.74,0,1.35,0.17,1.82,0.5
			c0.47,0.33,0.81,0.81,1.04,1.42c0.22,0.61,0.34,1.34,0.34,2.18C79.01,162.51,78.89,163.24,78.67,163.86z"/>
		<path d="M85.73,166.56c0.72,0.39,1.56,0.59,2.51,0.59c0.6,0,1.11-0.05,1.54-0.14c0.43-0.1,0.83-0.23,1.18-0.41v-1.42
			c-0.37,0.16-0.77,0.3-1.22,0.42c-0.45,0.12-0.95,0.18-1.51,0.18c-0.7,0-1.28-0.16-1.75-0.48c-0.46-0.32-0.81-0.78-1.05-1.38
			c-0.23-0.6-0.35-1.33-0.35-2.18c0-0.89,0.12-1.64,0.36-2.25c0.24-0.61,0.6-1.07,1.09-1.38c0.48-0.31,1.09-0.47,1.82-0.47
			c0.37,0,0.76,0.05,1.18,0.15c0.42,0.1,0.79,0.22,1.11,0.35l0.48-1.34c-0.31-0.16-0.72-0.29-1.21-0.4c-0.49-0.11-1-0.16-1.52-0.16
			c-0.96,0-1.81,0.2-2.56,0.59c-0.75,0.39-1.34,0.99-1.76,1.8c-0.43,0.81-0.64,1.85-0.64,3.13c0,1.22,0.2,2.23,0.61,3.03
			C84.44,165.57,85.01,166.17,85.73,166.56z"/>
		<path d="M95.65,161.44c0-0.83,0.1-1.54,0.3-2.12s0.53-1.01,1-1.31c0.46-0.3,1.09-0.45,1.87-0.45c0.83,0,1.44,0.22,1.84,0.65
			c0.4,0.44,0.6,1.09,0.6,1.97v6.76h1.58v-6.87c0-0.9-0.14-1.63-0.43-2.19c-0.29-0.56-0.71-0.98-1.28-1.25
			c-0.57-0.27-1.27-0.4-2.12-0.4c-0.48,0-0.94,0.07-1.37,0.2c-0.43,0.13-0.81,0.32-1.15,0.58c-0.34,0.25-0.61,0.57-0.83,0.94h-0.11
			c0.03-0.22,0.05-0.46,0.07-0.72c0.01-0.26,0.02-0.52,0.02-0.77v-4.47h-1.6v14.96h1.6V161.44z"/>
		<path d="M109.36,167.14c0.87,0,1.61-0.12,2.24-0.35c0.62-0.23,1.11-0.58,1.44-1.03c0.34-0.46,0.5-1.02,0.5-1.7
			c0-0.58-0.13-1.05-0.39-1.42c-0.26-0.37-0.63-0.68-1.11-0.94c-0.48-0.26-1.05-0.51-1.71-0.75c-0.66-0.25-1.19-0.47-1.6-0.65
			c-0.4-0.19-0.7-0.38-0.88-0.6c-0.18-0.21-0.27-0.48-0.27-0.81c0-0.42,0.2-0.76,0.59-1c0.39-0.24,0.96-0.36,1.7-0.36
			c0.51,0,1.02,0.06,1.51,0.19c0.49,0.13,0.96,0.29,1.39,0.47l0.54-1.28c-0.48-0.21-1-0.38-1.55-0.5c-0.55-0.13-1.15-0.19-1.78-0.19
			c-1.17,0-2.12,0.24-2.84,0.72c-0.72,0.48-1.08,1.16-1.08,2.05c0,0.58,0.13,1.06,0.4,1.42c0.27,0.36,0.64,0.67,1.13,0.93
			c0.49,0.25,1.07,0.51,1.75,0.76c0.68,0.25,1.21,0.48,1.6,0.69c0.38,0.21,0.66,0.42,0.82,0.64c0.16,0.22,0.25,0.48,0.25,0.76
			c0,0.51-0.21,0.91-0.62,1.2c-0.41,0.29-1.07,0.44-1.98,0.44c-0.62,0-1.23-0.09-1.83-0.26c-0.6-0.17-1.11-0.36-1.54-0.58v1.47
			c0.4,0.21,0.88,0.37,1.41,0.49C107.98,167.09,108.62,167.14,109.36,167.14z"/>
		<path d="M118.42,166.56c0.72,0.39,1.56,0.59,2.51,0.59c0.6,0,1.11-0.05,1.54-0.14c0.43-0.1,0.83-0.23,1.18-0.41v-1.42
			c-0.37,0.16-0.77,0.3-1.22,0.42c-0.45,0.12-0.95,0.18-1.51,0.18c-0.7,0-1.28-0.16-1.75-0.48c-0.46-0.32-0.81-0.78-1.05-1.38
			c-0.23-0.6-0.35-1.33-0.35-2.18c0-0.89,0.12-1.64,0.36-2.25c0.24-0.61,0.6-1.07,1.09-1.38c0.48-0.31,1.09-0.47,1.82-0.47
			c0.37,0,0.76,0.05,1.18,0.15c0.42,0.1,0.79,0.22,1.11,0.35l0.48-1.34c-0.31-0.16-0.72-0.29-1.21-0.4c-0.49-0.11-1-0.16-1.52-0.16
			c-0.96,0-1.81,0.2-2.56,0.59c-0.75,0.39-1.34,0.99-1.76,1.8c-0.43,0.81-0.64,1.85-0.64,3.13c0,1.22,0.2,2.23,0.61,3.03
			C117.13,165.57,117.69,166.17,118.42,166.56z"/>
		<path d="M129.64,158.01c0.46-0.3,1.09-0.45,1.87-0.45c0.83,0,1.44,0.22,1.84,0.65c0.4,0.44,0.6,1.09,0.6,1.97v6.76h1.58v-6.87
			c0-0.9-0.14-1.63-0.43-2.19c-0.29-0.56-0.71-0.98-1.28-1.25c-0.57-0.27-1.27-0.4-2.12-0.4c-0.48,0-0.94,0.07-1.37,0.2
			c-0.43,0.13-0.81,0.32-1.15,0.58c-0.34,0.25-0.61,0.57-0.83,0.94h-0.11c0.03-0.22,0.05-0.46,0.07-0.72
			c0.01-0.26,0.02-0.52,0.02-0.77v-4.47h-1.6v14.96h1.6v-5.51c0-0.83,0.1-1.54,0.3-2.12S129.17,158.31,129.64,158.01z"/>
		<path d="M141,166.74c0.56,0.27,1.26,0.4,2.1,0.4c0.49,0,0.95-0.06,1.38-0.19c0.43-0.13,0.82-0.31,1.17-0.56
			c0.35-0.25,0.63-0.56,0.85-0.92h0.09l0.23,1.48h1.31v-10.54h-1.61v5.55c0,0.83-0.1,1.54-0.31,2.11c-0.21,0.57-0.54,1.01-1,1.3
			c-0.47,0.3-1.09,0.44-1.87,0.44c-0.81,0-1.42-0.22-1.82-0.65c-0.4-0.43-0.6-1.09-0.6-1.97v-6.79h-1.62v6.9
			c0,0.88,0.14,1.61,0.43,2.17C140.01,166.05,140.44,166.47,141,166.74z"/>
		<rect x="152.09" y="151.99" width="1.61" height="14.96"/>
		<path d="M159.45,166.52c0.75,0.41,1.64,0.62,2.65,0.62c0.71,0,1.33-0.05,1.85-0.16c0.52-0.11,1.05-0.28,1.58-0.52v-1.4
			c-0.55,0.24-1.08,0.42-1.6,0.54c-0.51,0.12-1.1,0.18-1.77,0.18c-1.08,0-1.92-0.32-2.52-0.97c-0.6-0.65-0.9-1.59-0.92-2.83h7.28
			v-0.99c0-0.95-0.17-1.79-0.51-2.5c-0.34-0.71-0.83-1.27-1.47-1.67c-0.64-0.4-1.41-0.6-2.31-0.6c-0.94,0-1.76,0.22-2.46,0.67
			c-0.7,0.45-1.23,1.09-1.62,1.92c-0.38,0.83-0.57,1.81-0.57,2.95c0,1.16,0.21,2.14,0.62,2.94
			C158.11,165.5,158.7,166.11,159.45,166.52z M159.66,158.36c0.51-0.56,1.19-0.84,2.04-0.84c0.6,0,1.1,0.13,1.48,0.4
			c0.39,0.27,0.67,0.64,0.86,1.12c0.19,0.48,0.29,1.03,0.29,1.66h-5.58C158.85,159.7,159.15,158.92,159.66,158.36z"/>
		<path d="M175.09,166.95h1.6v-9.29h2.63v-1.25h-2.63v-0.77c0-0.84,0.15-1.46,0.44-1.85c0.29-0.39,0.74-0.59,1.35-0.59
			c0.28,0,0.56,0.03,0.83,0.09c0.27,0.06,0.52,0.13,0.74,0.2l0.41-1.26c-0.26-0.09-0.55-0.17-0.89-0.24
			c-0.34-0.07-0.71-0.11-1.11-0.11c-0.72,0-1.33,0.13-1.83,0.39c-0.5,0.26-0.88,0.67-1.14,1.23c-0.26,0.55-0.39,1.27-0.39,2.16v0.7
			l-1.87,0.53v0.77h1.87V166.95z"/>
		<path d="M183.43,166.74c0.56,0.27,1.26,0.4,2.1,0.4c0.49,0,0.95-0.06,1.38-0.19c0.43-0.13,0.82-0.31,1.17-0.56
			c0.35-0.25,0.63-0.56,0.85-0.92h0.09l0.23,1.48h1.31v-10.54h-1.61v5.55c0,0.83-0.1,1.54-0.31,2.11c-0.21,0.57-0.54,1.01-1,1.3
			c-0.47,0.3-1.09,0.44-1.87,0.44c-0.81,0-1.42-0.22-1.82-0.65c-0.4-0.43-0.6-1.09-0.6-1.97v-6.79h-1.62v6.9
			c0,0.88,0.14,1.61,0.43,2.17C182.44,166.05,182.87,166.47,183.43,166.74z"/>
		<path d="M184.34,154.49c0.25,0,0.46-0.08,0.63-0.24c0.17-0.16,0.25-0.39,0.25-0.71c0-0.32-0.09-0.55-0.25-0.7
			c-0.17-0.15-0.38-0.22-0.63-0.22c-0.24,0-0.45,0.07-0.62,0.22c-0.17,0.15-0.25,0.38-0.25,0.7c0,0.31,0.08,0.55,0.25,0.71
			C183.9,154.41,184.1,154.49,184.34,154.49z"/>
		<path d="M188.03,154.49c0.24,0,0.45-0.08,0.62-0.24c0.17-0.16,0.26-0.39,0.26-0.71c0-0.32-0.09-0.55-0.26-0.7
			c-0.17-0.15-0.38-0.22-0.62-0.22c-0.24,0-0.44,0.07-0.61,0.22c-0.17,0.15-0.25,0.38-0.25,0.7c0,0.31,0.08,0.55,0.25,0.71
			C187.59,154.41,187.79,154.49,188.03,154.49z"/>
		<path d="M196.13,161.3c0-0.54,0.08-1.04,0.24-1.49c0.16-0.45,0.38-0.83,0.66-1.14c0.28-0.32,0.61-0.56,0.99-0.73
			c0.37-0.17,0.77-0.26,1.2-0.26c0.19,0,0.39,0.01,0.6,0.04c0.21,0.03,0.4,0.06,0.58,0.11l0.2-1.48c-0.18-0.04-0.39-0.07-0.62-0.09
			c-0.23-0.02-0.45-0.03-0.66-0.03c-0.5,0-0.95,0.1-1.36,0.29c-0.41,0.19-0.76,0.45-1.07,0.77c-0.31,0.32-0.57,0.68-0.79,1.07h-0.07
			l-0.17-1.94h-1.33v10.54h1.61V161.3z"/>
		<polygon points="206.96,154.34 211.39,154.34 211.39,166.95 213.03,166.95 213.03,154.34 217.43,154.34 217.43,152.89 
			206.96,152.89 		"/>
		<path d="M226.28,156.82c-0.64-0.4-1.41-0.6-2.31-0.6c-0.94,0-1.76,0.22-2.46,0.67s-1.23,1.09-1.62,1.92
			c-0.38,0.83-0.57,1.81-0.57,2.95c0,1.16,0.21,2.14,0.62,2.94c0.42,0.8,1,1.41,1.76,1.82c0.75,0.41,1.64,0.62,2.65,0.62
			c0.71,0,1.33-0.05,1.85-0.16c0.52-0.11,1.05-0.28,1.58-0.52v-1.4c-0.55,0.24-1.08,0.42-1.6,0.54c-0.51,0.12-1.1,0.18-1.77,0.18
			c-1.08,0-1.92-0.32-2.52-0.97c-0.6-0.65-0.9-1.59-0.92-2.83h7.28v-0.99c0-0.95-0.17-1.79-0.51-2.5
			C227.41,157.77,226.92,157.21,226.28,156.82z M221.01,160.7c0.1-1,0.4-1.78,0.9-2.34c0.51-0.56,1.19-0.84,2.04-0.84
			c0.6,0,1.1,0.13,1.48,0.4c0.39,0.27,0.67,0.64,0.86,1.12c0.19,0.48,0.29,1.03,0.29,1.66H221.01z"/>
		<path d="M233.28,166.56c0.72,0.39,1.56,0.59,2.51,0.59c0.6,0,1.11-0.05,1.54-0.14c0.43-0.1,0.83-0.23,1.18-0.41v-1.42
			c-0.36,0.16-0.77,0.3-1.22,0.42c-0.45,0.12-0.95,0.18-1.51,0.18c-0.7,0-1.28-0.16-1.75-0.48c-0.47-0.32-0.81-0.78-1.05-1.38
			c-0.23-0.6-0.35-1.33-0.35-2.18c0-0.89,0.12-1.64,0.36-2.25c0.24-0.61,0.6-1.07,1.09-1.38s1.09-0.47,1.82-0.47
			c0.37,0,0.76,0.05,1.18,0.15c0.42,0.1,0.79,0.22,1.11,0.35l0.48-1.34c-0.31-0.16-0.72-0.29-1.21-0.4c-0.49-0.11-1-0.16-1.52-0.16
			c-0.95,0-1.81,0.2-2.56,0.59c-0.75,0.39-1.34,0.99-1.76,1.8c-0.43,0.81-0.64,1.85-0.64,3.13c0,1.22,0.2,2.23,0.61,3.03
			C232,165.57,232.56,166.17,233.28,166.56z"/>
		<path d="M243.2,161.44c0-0.83,0.1-1.54,0.3-2.12c0.2-0.58,0.54-1.01,1-1.31c0.46-0.3,1.09-0.45,1.87-0.45
			c0.83,0,1.44,0.22,1.84,0.65c0.4,0.44,0.6,1.09,0.6,1.97v6.76h1.58v-6.87c0-0.9-0.14-1.63-0.43-2.19
			c-0.29-0.56-0.71-0.98-1.28-1.25c-0.57-0.27-1.27-0.4-2.12-0.4c-0.48,0-0.94,0.07-1.37,0.2c-0.43,0.13-0.81,0.32-1.15,0.58
			c-0.34,0.25-0.61,0.57-0.83,0.94h-0.11c0.03-0.22,0.05-0.46,0.07-0.72c0.01-0.26,0.02-0.52,0.02-0.77v-4.47h-1.6v14.96h1.6V161.44
			z"/>
		<path d="M261.49,160.19v6.76h1.58v-6.87c0-1.35-0.32-2.33-0.96-2.95c-0.64-0.61-1.59-0.92-2.84-0.92c-0.47,0-0.93,0.07-1.36,0.2
			c-0.43,0.13-0.82,0.32-1.16,0.58c-0.35,0.25-0.63,0.57-0.86,0.94h-0.09l-0.24-1.52h-1.29v10.54h1.6v-5.52
			c0-1.26,0.24-2.21,0.71-2.88c0.47-0.66,1.29-0.99,2.46-0.99c0.83,0,1.44,0.22,1.84,0.65
			C261.29,158.66,261.49,159.31,261.49,160.19z"/>
		<rect x="266.96" y="156.41" width="1.6" height="10.54"/>
		<path d="M267.77,152.47c-0.28,0-0.5,0.09-0.69,0.25c-0.18,0.17-0.27,0.43-0.27,0.79c0,0.35,0.09,0.62,0.27,0.79
			c0.18,0.17,0.41,0.26,0.69,0.26c0.26,0,0.49-0.09,0.68-0.26c0.19-0.17,0.28-0.44,0.28-0.79c0-0.36-0.09-0.62-0.28-0.79
			C268.26,152.56,268.04,152.47,267.77,152.47z"/>
		<path d="M276.49,160.91l4.24-4.5h-1.88l-3.5,3.73c-0.18,0.2-0.4,0.46-0.66,0.79c-0.26,0.33-0.46,0.57-0.59,0.74h-0.07
			c0.01-0.28,0.03-0.61,0.05-0.98c0.02-0.37,0.03-0.68,0.03-0.94v-7.77h-1.59v14.96h1.59v-3.82l1.28-1.17l3.72,4.99h1.92
			L276.49,160.91z"/>
		<path d="M295.87,161.96c0,0.83-0.1,1.54-0.31,2.11c-0.21,0.57-0.54,1.01-1,1.3c-0.47,0.3-1.09,0.44-1.87,0.44
			c-0.81,0-1.42-0.22-1.82-0.65c-0.4-0.43-0.6-1.09-0.6-1.97v-6.79h-1.62v6.9c0,0.88,0.14,1.61,0.43,2.17
			c0.29,0.56,0.71,0.98,1.27,1.25c0.56,0.27,1.26,0.4,2.1,0.4c0.49,0,0.95-0.06,1.38-0.19c0.43-0.13,0.82-0.31,1.17-0.56
			c0.35-0.25,0.63-0.56,0.85-0.92h0.09l0.23,1.48h1.31v-10.54h-1.61V161.96z"/>
		<path d="M310.24,166.95v-6.87c0-1.35-0.32-2.33-0.96-2.95c-0.64-0.61-1.59-0.92-2.84-0.92c-0.47,0-0.93,0.07-1.36,0.2
			c-0.43,0.13-0.82,0.32-1.16,0.58c-0.35,0.25-0.63,0.57-0.86,0.94h-0.09l-0.24-1.52h-1.29v10.54h1.6v-5.52
			c0-1.26,0.24-2.21,0.71-2.88c0.47-0.66,1.29-0.99,2.46-0.99c0.83,0,1.44,0.22,1.84,0.65c0.4,0.44,0.6,1.09,0.6,1.97v6.76H310.24z"
			/>
		<path d="M321.2,165.45h0.07l0.24,1.5h1.29v-14.96h-1.6v4.22c0,0.22,0.01,0.5,0.04,0.85c0.03,0.35,0.05,0.62,0.08,0.82h-0.12
			c-0.21-0.31-0.46-0.59-0.76-0.84c-0.3-0.25-0.66-0.44-1.08-0.59c-0.42-0.15-0.9-0.22-1.46-0.22c-1.32,0-2.38,0.46-3.17,1.39
			c-0.8,0.93-1.19,2.3-1.19,4.11c0,1.8,0.39,3.15,1.17,4.06s1.84,1.37,3.17,1.37c0.57,0,1.07-0.08,1.49-0.23
			c0.42-0.15,0.78-0.35,1.09-0.61C320.75,166.05,321,165.77,321.2,165.45z M318.12,165.82c-0.99,0-1.72-0.35-2.21-1.06
			c-0.48-0.71-0.73-1.71-0.73-3c0-1.3,0.24-2.33,0.73-3.08c0.49-0.75,1.22-1.13,2.2-1.13c1.17,0,1.98,0.36,2.43,1.08
			c0.45,0.72,0.67,1.75,0.67,3.09V162c0,1.26-0.23,2.21-0.7,2.86C320.05,165.5,319.25,165.82,318.12,165.82z"/>
		<path d="M70.95,180.34l-2.26,8.81c-0.1,0.4-0.2,0.79-0.28,1.17c-0.09,0.38-0.16,0.74-0.23,1.09c-0.06,0.35-0.12,0.68-0.16,0.99
			c-0.04-0.22-0.08-0.46-0.13-0.72c-0.05-0.25-0.1-0.52-0.16-0.8c-0.06-0.28-0.13-0.57-0.21-0.86c-0.08-0.3-0.16-0.59-0.25-0.89
			l-2.63-8.79h-1.68l-2.53,8.72c-0.08,0.29-0.16,0.58-0.24,0.87c-0.07,0.29-0.14,0.57-0.2,0.86c-0.06,0.28-0.12,0.56-0.17,0.83
			c-0.05,0.27-0.09,0.53-0.13,0.78c-0.04-0.24-0.08-0.49-0.13-0.75c-0.04-0.26-0.09-0.52-0.15-0.79c-0.05-0.27-0.12-0.55-0.18-0.83
			c-0.07-0.28-0.14-0.58-0.22-0.87l-2.26-8.82h-1.7l3.73,14.06h1.64l2.71-9.45c0.08-0.28,0.16-0.56,0.24-0.84
			c0.07-0.28,0.14-0.53,0.19-0.78c0.05-0.24,0.1-0.46,0.13-0.64c0.04-0.19,0.06-0.33,0.07-0.42c0.02,0.1,0.05,0.24,0.09,0.43
			c0.04,0.19,0.09,0.41,0.16,0.65c0.06,0.25,0.13,0.51,0.21,0.78c0.07,0.27,0.15,0.54,0.24,0.81l2.79,9.46h1.64l3.76-14.06H70.95z"
			/>
		<rect x="75.24" y="183.86" width="1.6" height="10.54"/>
		<path d="M76.73,180.17c-0.19-0.17-0.41-0.25-0.68-0.25c-0.28,0-0.51,0.09-0.69,0.25c-0.18,0.17-0.27,0.43-0.27,0.79
			c0,0.35,0.09,0.62,0.27,0.79s0.41,0.26,0.69,0.26c0.26,0,0.49-0.09,0.68-0.26s0.28-0.44,0.28-0.79
			C77.02,180.6,76.92,180.34,76.73,180.17z"/>
		<path d="M85.6,183.66c-0.5,0-0.95,0.1-1.36,0.29c-0.41,0.19-0.76,0.45-1.07,0.77c-0.31,0.32-0.57,0.68-0.79,1.07h-0.07l-0.17-1.94
			h-1.33v10.54h1.61v-5.65c0-0.54,0.08-1.04,0.24-1.49c0.16-0.45,0.38-0.83,0.66-1.14c0.28-0.32,0.61-0.56,0.99-0.73
			c0.37-0.17,0.77-0.26,1.2-0.26c0.19,0,0.38,0.01,0.6,0.04c0.21,0.03,0.4,0.06,0.58,0.11l0.2-1.48c-0.18-0.04-0.38-0.07-0.62-0.09
			C86.03,183.68,85.81,183.66,85.6,183.66z"/>
		<path d="M90.22,181.41l-0.63,2.29l-1.51,0.62v0.78h1.5v6.25c0,0.83,0.14,1.47,0.41,1.94c0.27,0.47,0.64,0.8,1.09,1
			c0.45,0.2,0.96,0.29,1.52,0.29c0.31,0,0.64-0.03,0.97-0.09c0.33-0.06,0.59-0.13,0.77-0.21v-1.24c-0.17,0.06-0.4,0.12-0.67,0.16
			c-0.28,0.04-0.54,0.07-0.81,0.07c-0.51,0-0.91-0.16-1.22-0.49c-0.3-0.33-0.46-0.82-0.46-1.48v-6.2h3.09v-1.25h-3.09v-2.44H90.22z"
			/>
		<path d="M101.94,194.24c0.62-0.23,1.11-0.58,1.44-1.03c0.34-0.46,0.5-1.02,0.5-1.7c0-0.58-0.13-1.05-0.39-1.42
			c-0.26-0.37-0.63-0.68-1.11-0.94c-0.48-0.26-1.05-0.51-1.71-0.75c-0.66-0.25-1.19-0.47-1.6-0.65c-0.4-0.19-0.7-0.38-0.88-0.6
			s-0.27-0.48-0.27-0.81c0-0.42,0.2-0.76,0.59-1c0.39-0.24,0.96-0.36,1.7-0.36c0.51,0,1.02,0.06,1.51,0.19
			c0.49,0.13,0.96,0.29,1.39,0.47l0.54-1.28c-0.48-0.21-1-0.38-1.55-0.5c-0.55-0.13-1.15-0.19-1.78-0.19
			c-1.17,0-2.12,0.24-2.84,0.72c-0.72,0.48-1.08,1.16-1.08,2.05c0,0.58,0.13,1.06,0.4,1.42c0.27,0.36,0.64,0.67,1.13,0.93
			c0.49,0.25,1.07,0.51,1.75,0.76c0.68,0.25,1.21,0.48,1.6,0.69c0.38,0.21,0.66,0.42,0.82,0.64c0.16,0.22,0.25,0.48,0.25,0.76
			c0,0.51-0.21,0.91-0.62,1.2c-0.41,0.29-1.07,0.44-1.98,0.44c-0.62,0-1.23-0.09-1.83-0.26c-0.6-0.17-1.11-0.36-1.54-0.58v1.47
			c0.4,0.21,0.88,0.37,1.41,0.49c0.54,0.12,1.18,0.17,1.91,0.17C100.57,194.59,101.32,194.47,101.94,194.24z"/>
		<path d="M112.82,194.44c0.43-0.1,0.83-0.23,1.18-0.41v-1.42c-0.37,0.16-0.77,0.3-1.22,0.42c-0.45,0.12-0.95,0.18-1.51,0.18
			c-0.7,0-1.28-0.16-1.75-0.48c-0.46-0.32-0.81-0.78-1.05-1.38c-0.23-0.6-0.35-1.33-0.35-2.18c0-0.89,0.12-1.64,0.36-2.25
			c0.24-0.61,0.6-1.07,1.09-1.38c0.48-0.31,1.09-0.47,1.82-0.47c0.37,0,0.76,0.05,1.18,0.15c0.42,0.1,0.79,0.22,1.11,0.35l0.48-1.34
			c-0.31-0.16-0.72-0.29-1.21-0.4c-0.49-0.11-1-0.16-1.52-0.16c-0.96,0-1.81,0.2-2.56,0.59c-0.75,0.39-1.34,0.99-1.76,1.8
			c-0.43,0.81-0.64,1.85-0.64,3.13c0,1.22,0.2,2.23,0.61,3.03c0.4,0.8,0.97,1.4,1.69,1.79c0.72,0.39,1.56,0.59,2.51,0.59
			C111.87,194.59,112.39,194.54,112.82,194.44z"/>
		<path d="M118.68,188.88c0-0.83,0.1-1.54,0.3-2.12s0.54-1.01,1-1.31c0.46-0.3,1.09-0.45,1.87-0.45c0.83,0,1.44,0.22,1.84,0.65
			c0.4,0.44,0.6,1.09,0.6,1.97v6.76h1.58v-6.87c0-0.9-0.14-1.63-0.43-2.19c-0.29-0.56-0.71-0.98-1.28-1.25
			c-0.57-0.27-1.27-0.4-2.12-0.4c-0.48,0-0.94,0.07-1.37,0.2c-0.43,0.13-0.81,0.32-1.15,0.58c-0.34,0.25-0.61,0.57-0.83,0.94h-0.11
			c0.03-0.22,0.05-0.46,0.07-0.72c0.01-0.26,0.02-0.52,0.02-0.77v-4.47h-1.6v14.96h1.6V188.88z"/>
		<path d="M134.94,193.8c0.32-0.26,0.63-0.58,0.92-0.97h0.08l0.31,1.56h1.16v-7.16c0-1.24-0.3-2.14-0.91-2.7
			c-0.61-0.56-1.54-0.85-2.8-0.85c-0.68,0-1.33,0.09-1.94,0.26c-0.62,0.17-1.16,0.38-1.63,0.62l0.49,1.21
			c0.45-0.22,0.92-0.41,1.42-0.57c0.5-0.16,1.03-0.24,1.58-0.24c0.71,0,1.26,0.18,1.65,0.55c0.39,0.37,0.59,1,0.59,1.91v0.64
			l-1.82,0.08c-1.71,0.05-2.97,0.36-3.81,0.92c-0.83,0.56-1.25,1.37-1.25,2.42c0,0.7,0.14,1.28,0.43,1.73
			c0.28,0.45,0.68,0.79,1.17,1.02c0.5,0.22,1.07,0.34,1.71,0.34c0.61,0,1.12-0.07,1.54-0.2
			C134.25,194.26,134.62,194.06,134.94,193.8z M131.19,192.86c-0.37-0.29-0.55-0.73-0.55-1.34c0-0.69,0.27-1.23,0.81-1.61
			c0.54-0.38,1.46-0.59,2.78-0.64l1.61-0.07v0.97c0,1.04-0.3,1.82-0.89,2.34c-0.6,0.52-1.36,0.78-2.3,0.78
			C132.04,193.29,131.56,193.14,131.19,192.86z"/>
		<path d="M141.77,194.39h1.6v-9.29h2.63v-1.25h-2.63v-0.77c0-0.84,0.15-1.46,0.44-1.85c0.29-0.39,0.74-0.59,1.35-0.59
			c0.28,0,0.56,0.03,0.83,0.09c0.27,0.06,0.52,0.13,0.74,0.2l0.41-1.26c-0.26-0.09-0.55-0.17-0.89-0.24
			c-0.34-0.07-0.71-0.11-1.11-0.11c-0.72,0-1.33,0.13-1.83,0.39c-0.5,0.26-0.88,0.67-1.14,1.23c-0.26,0.55-0.39,1.27-0.39,2.16v0.7
			l-1.87,0.53v0.77h1.87V194.39z"/>
		<path d="M151.93,193.28c-0.51,0-0.91-0.16-1.22-0.49c-0.3-0.33-0.46-0.82-0.46-1.48v-6.2h3.09v-1.25h-3.09v-2.44h-0.96l-0.63,2.29
			l-1.51,0.62v0.78h1.5v6.25c0,0.83,0.14,1.47,0.41,1.94c0.27,0.47,0.64,0.8,1.09,1c0.45,0.2,0.96,0.29,1.52,0.29
			c0.31,0,0.64-0.03,0.97-0.09c0.33-0.06,0.59-0.13,0.77-0.21v-1.24c-0.17,0.06-0.4,0.12-0.67,0.16
			C152.46,193.26,152.19,193.28,151.93,193.28z"/>
		<path d="M161.69,180.34v14.06h3.82c1.56,0,2.88-0.27,3.98-0.8c1.09-0.54,1.93-1.33,2.5-2.39c0.58-1.06,0.87-2.38,0.87-3.97
			c0-1.51-0.28-2.77-0.84-3.79c-0.56-1.02-1.36-1.8-2.39-2.32c-1.03-0.52-2.26-0.78-3.69-0.78H161.69z M170.5,184.16
			c0.42,0.82,0.63,1.86,0.63,3.12c0,1.89-0.49,3.31-1.46,4.27c-0.97,0.96-2.42,1.43-4.36,1.43h-1.99v-11.26h2.36
			c1.17,0,2.16,0.2,2.98,0.6C169.46,182.73,170.08,183.34,170.5,184.16z"/>
		<path d="M181.62,185.16c0.21,0.03,0.4,0.06,0.58,0.11l0.2-1.48c-0.18-0.04-0.38-0.07-0.62-0.09c-0.23-0.02-0.45-0.03-0.66-0.03
			c-0.5,0-0.95,0.1-1.36,0.29c-0.41,0.19-0.76,0.45-1.07,0.77c-0.31,0.32-0.57,0.68-0.79,1.07h-0.07l-0.17-1.94h-1.33v10.54h1.61
			v-5.65c0-0.54,0.08-1.04,0.24-1.49c0.16-0.45,0.38-0.83,0.66-1.14c0.28-0.32,0.61-0.56,0.99-0.73c0.37-0.17,0.77-0.26,1.2-0.26
			C181.21,185.13,181.41,185.14,181.62,185.16z"/>
		<path d="M191.35,184.26c-0.64-0.4-1.41-0.6-2.31-0.6c-0.94,0-1.76,0.22-2.46,0.67c-0.7,0.45-1.23,1.09-1.62,1.92
			c-0.38,0.83-0.57,1.81-0.57,2.95c0,1.16,0.21,2.14,0.62,2.94c0.42,0.8,1,1.41,1.75,1.82c0.75,0.41,1.64,0.62,2.65,0.62
			c0.71,0,1.33-0.05,1.85-0.16c0.52-0.11,1.05-0.28,1.58-0.52v-1.4c-0.55,0.24-1.08,0.42-1.6,0.54c-0.51,0.12-1.1,0.18-1.77,0.18
			c-1.08,0-1.92-0.32-2.52-0.97c-0.6-0.65-0.9-1.59-0.92-2.83h7.28v-0.99c0-0.95-0.17-1.79-0.51-2.5
			C192.48,185.21,191.99,184.66,191.35,184.26z M186.08,188.14c0.1-1,0.4-1.78,0.9-2.34c0.51-0.56,1.19-0.84,2.04-0.84
			c0.6,0,1.1,0.13,1.48,0.4c0.39,0.27,0.67,0.64,0.86,1.12c0.19,0.48,0.29,1.03,0.29,1.66H186.08z"/>
		<path d="M197.05,184.38c-0.72,0.48-1.08,1.16-1.08,2.05c0,0.58,0.13,1.06,0.4,1.42c0.27,0.36,0.64,0.67,1.13,0.93
			c0.49,0.25,1.07,0.51,1.75,0.76c0.68,0.25,1.21,0.48,1.59,0.69c0.39,0.21,0.66,0.42,0.82,0.64c0.16,0.22,0.24,0.48,0.24,0.76
			c0,0.51-0.21,0.91-0.61,1.2c-0.41,0.29-1.07,0.44-1.98,0.44c-0.62,0-1.23-0.09-1.83-0.26c-0.6-0.17-1.11-0.36-1.54-0.58v1.47
			c0.4,0.21,0.88,0.37,1.41,0.49c0.54,0.12,1.18,0.17,1.91,0.17c0.87,0,1.61-0.12,2.24-0.35c0.63-0.23,1.11-0.58,1.44-1.03
			c0.34-0.46,0.51-1.02,0.51-1.7c0-0.58-0.13-1.05-0.39-1.42c-0.26-0.37-0.63-0.68-1.11-0.94c-0.48-0.26-1.05-0.51-1.71-0.75
			c-0.66-0.25-1.19-0.47-1.59-0.65c-0.4-0.19-0.7-0.38-0.88-0.6c-0.18-0.21-0.27-0.48-0.27-0.81c0-0.42,0.2-0.76,0.59-1
			c0.39-0.24,0.96-0.36,1.7-0.36c0.51,0,1.02,0.06,1.51,0.19c0.49,0.13,0.96,0.29,1.39,0.47l0.54-1.28c-0.48-0.21-1-0.38-1.55-0.5
			c-0.56-0.13-1.15-0.19-1.78-0.19C198.71,183.66,197.77,183.9,197.05,184.38z"/>
		<path d="M211.86,194.36c0.42-0.15,0.78-0.35,1.09-0.61c0.3-0.26,0.56-0.54,0.75-0.86h0.07l0.24,1.5h1.29v-14.96h-1.6v4.22
			c0,0.22,0.01,0.5,0.04,0.85c0.03,0.35,0.05,0.62,0.08,0.82h-0.12c-0.21-0.31-0.46-0.59-0.76-0.84c-0.3-0.25-0.66-0.44-1.08-0.59
			c-0.42-0.15-0.9-0.22-1.46-0.22c-1.32,0-2.38,0.46-3.17,1.39c-0.8,0.93-1.19,2.3-1.19,4.11c0,1.8,0.39,3.15,1.17,4.06
			c0.78,0.91,1.84,1.37,3.17,1.37C210.94,194.59,211.44,194.51,211.86,194.36z M208.41,192.2c-0.48-0.71-0.73-1.71-0.73-3
			c0-1.3,0.24-2.33,0.73-3.08c0.49-0.75,1.22-1.13,2.2-1.13c1.17,0,1.98,0.36,2.43,1.08c0.45,0.72,0.67,1.75,0.67,3.09v0.29
			c0,1.26-0.23,2.21-0.7,2.86c-0.47,0.64-1.27,0.96-2.4,0.96C209.63,193.26,208.9,192.91,208.41,192.2z"/>
		<path d="M225.63,184.26c-0.64-0.4-1.41-0.6-2.31-0.6c-0.94,0-1.76,0.22-2.46,0.67c-0.7,0.45-1.23,1.09-1.62,1.92
			c-0.38,0.83-0.57,1.81-0.57,2.95c0,1.16,0.21,2.14,0.62,2.94c0.42,0.8,1,1.41,1.75,1.82c0.75,0.41,1.64,0.62,2.65,0.62
			c0.71,0,1.33-0.05,1.85-0.16c0.52-0.11,1.05-0.28,1.58-0.52v-1.4c-0.55,0.24-1.08,0.42-1.6,0.54c-0.51,0.12-1.1,0.18-1.77,0.18
			c-1.08,0-1.92-0.32-2.52-0.97c-0.6-0.65-0.9-1.59-0.92-2.83h7.28v-0.99c0-0.95-0.17-1.79-0.51-2.5
			C226.76,185.21,226.27,184.66,225.63,184.26z M220.36,188.14c0.1-1,0.4-1.78,0.9-2.34c0.51-0.56,1.19-0.84,2.04-0.84
			c0.6,0,1.1,0.13,1.48,0.4c0.39,0.27,0.67,0.64,0.86,1.12c0.19,0.48,0.29,1.03,0.29,1.66H220.36z"/>
		<path d="M235.91,183.66c-0.47,0-0.93,0.07-1.36,0.2c-0.43,0.13-0.82,0.32-1.16,0.58c-0.35,0.25-0.63,0.57-0.86,0.94h-0.09
			l-0.24-1.52h-1.29v10.54h1.6v-5.52c0-1.26,0.24-2.21,0.71-2.88c0.47-0.66,1.29-0.99,2.46-0.99c0.83,0,1.44,0.22,1.84,0.65
			s0.6,1.09,0.6,1.97v6.76h1.58v-6.87c0-1.35-0.32-2.33-0.96-2.95C238.11,183.97,237.16,183.66,235.91,183.66z"/>
		<path d="M65.71,217.09c0,0.74-0.13,1.39-0.4,1.95c-0.27,0.56-0.67,1-1.22,1.31c-0.55,0.31-1.25,0.47-2.11,0.47
			c-1.26,0-2.2-0.32-2.83-0.97c-0.63-0.65-0.95-1.57-0.95-2.76v-9.11h-1.64v9.06c0,1.58,0.45,2.84,1.36,3.78
			c0.91,0.94,2.23,1.41,3.97,1.41c1.22,0,2.23-0.22,3.04-0.67c0.81-0.45,1.41-1.06,1.81-1.83c0.4-0.78,0.6-1.66,0.6-2.65v-9.1h-1.63
			V217.09z"/>
		<path d="M76.2,211.3c-0.47,0-0.93,0.07-1.36,0.2c-0.43,0.13-0.82,0.32-1.16,0.58c-0.35,0.25-0.63,0.57-0.86,0.94h-0.09l-0.24-1.52
			H71.2v10.54h1.6v-5.52c0-1.26,0.24-2.21,0.71-2.88c0.47-0.66,1.29-0.99,2.46-0.99c0.83,0,1.44,0.22,1.84,0.65
			c0.4,0.44,0.6,1.09,0.6,1.97v6.76h1.58v-6.87c0-1.35-0.32-2.33-0.96-2.95C78.39,211.61,77.45,211.3,76.2,211.3z"/>
		<rect x="83.68" y="211.49" width="1.6" height="10.54"/>
		<path d="M84.49,207.55c-0.28,0-0.5,0.08-0.69,0.25c-0.18,0.17-0.27,0.43-0.27,0.79c0,0.35,0.09,0.62,0.27,0.79
			c0.18,0.17,0.41,0.26,0.69,0.26c0.26,0,0.49-0.09,0.68-0.26c0.19-0.17,0.28-0.44,0.28-0.79c0-0.36-0.09-0.62-0.28-0.79
			C84.98,207.64,84.76,207.55,84.49,207.55z"/>
		<path d="M93.17,217.87c-0.15,0.43-0.31,0.91-0.49,1.44c-0.18,0.53-0.31,0.95-0.38,1.27h-0.07c-0.06-0.32-0.18-0.74-0.35-1.27
			c-0.17-0.53-0.33-1.01-0.49-1.44l-2.32-6.38h-1.71l4,10.54h1.83l4.01-10.54h-1.71L93.17,217.87z"/>
		<path d="M105.64,211.9c-0.64-0.4-1.41-0.6-2.31-0.6c-0.94,0-1.76,0.22-2.46,0.67c-0.7,0.45-1.23,1.09-1.62,1.92
			c-0.38,0.83-0.57,1.81-0.57,2.95c0,1.16,0.21,2.14,0.62,2.94c0.42,0.8,1,1.41,1.75,1.82c0.75,0.41,1.64,0.62,2.65,0.62
			c0.71,0,1.33-0.05,1.85-0.16c0.52-0.11,1.05-0.28,1.58-0.52v-1.4c-0.55,0.24-1.08,0.42-1.6,0.54c-0.51,0.12-1.1,0.18-1.77,0.18
			c-1.08,0-1.92-0.32-2.52-0.97c-0.6-0.65-0.9-1.59-0.92-2.83h7.28v-0.99c0-0.95-0.17-1.79-0.51-2.5
			C106.77,212.85,106.28,212.29,105.64,211.9z M100.37,215.78c0.1-1,0.4-1.78,0.9-2.34c0.51-0.56,1.19-0.84,2.04-0.84
			c0.6,0,1.1,0.13,1.48,0.4c0.39,0.27,0.67,0.64,0.86,1.12c0.19,0.48,0.29,1.03,0.29,1.66H100.37z"/>
		<path d="M115.51,211.3c-0.5,0-0.95,0.1-1.36,0.29c-0.41,0.19-0.76,0.45-1.07,0.77c-0.31,0.32-0.57,0.68-0.79,1.07h-0.07
			l-0.17-1.94h-1.33v10.54h1.61v-5.65c0-0.54,0.08-1.04,0.24-1.49c0.16-0.45,0.38-0.83,0.66-1.14c0.28-0.32,0.61-0.56,0.99-0.73
			c0.37-0.17,0.77-0.26,1.2-0.26c0.19,0,0.38,0.01,0.6,0.04c0.21,0.03,0.4,0.06,0.58,0.11l0.2-1.48c-0.18-0.04-0.38-0.07-0.62-0.09
			C115.94,211.31,115.72,211.3,115.51,211.3z"/>
		<path d="M124.48,216.79c-0.48-0.26-1.05-0.51-1.71-0.75c-0.66-0.25-1.19-0.47-1.6-0.65c-0.4-0.19-0.7-0.38-0.88-0.6
			c-0.18-0.21-0.27-0.48-0.27-0.81c0-0.42,0.2-0.76,0.59-1c0.39-0.24,0.96-0.36,1.7-0.36c0.51,0,1.02,0.06,1.51,0.19
			c0.49,0.13,0.96,0.29,1.39,0.47l0.54-1.28c-0.48-0.21-1-0.38-1.55-0.5c-0.55-0.13-1.15-0.19-1.78-0.19
			c-1.17,0-2.12,0.24-2.84,0.72c-0.72,0.48-1.08,1.16-1.08,2.05c0,0.58,0.13,1.06,0.4,1.42c0.27,0.36,0.64,0.67,1.13,0.93
			c0.49,0.25,1.07,0.51,1.75,0.76c0.68,0.25,1.21,0.48,1.6,0.69c0.38,0.21,0.66,0.42,0.82,0.64c0.16,0.22,0.25,0.48,0.25,0.76
			c0,0.51-0.21,0.91-0.62,1.2c-0.41,0.29-1.07,0.44-1.98,0.44c-0.62,0-1.23-0.09-1.83-0.26c-0.6-0.17-1.11-0.36-1.54-0.58v1.47
			c0.4,0.21,0.88,0.38,1.41,0.49c0.54,0.12,1.18,0.17,1.91,0.17c0.87,0,1.61-0.12,2.24-0.35c0.62-0.23,1.11-0.58,1.44-1.03
			c0.34-0.46,0.5-1.02,0.5-1.7c0-0.58-0.13-1.05-0.39-1.42C125.33,217.36,124.96,217.05,124.48,216.79z"/>
		<rect x="128.94" y="211.49" width="1.6" height="10.54"/>
		<path d="M129.76,207.55c-0.28,0-0.5,0.08-0.69,0.25c-0.18,0.17-0.27,0.43-0.27,0.79c0,0.35,0.09,0.62,0.27,0.79
			c0.18,0.17,0.41,0.26,0.69,0.26c0.26,0,0.49-0.09,0.68-0.26c0.19-0.17,0.28-0.44,0.28-0.79c0-0.36-0.09-0.62-0.28-0.79
			C130.25,207.64,130.02,207.55,129.76,207.55z"/>
		<path d="M137.71,220.92c-0.51,0-0.91-0.16-1.22-0.49c-0.3-0.33-0.46-0.82-0.46-1.48v-6.2h3.09v-1.25h-3.09v-2.44h-0.96l-0.63,2.29
			l-1.51,0.62v0.78h1.5v6.25c0,0.83,0.14,1.47,0.41,1.94c0.27,0.47,0.64,0.8,1.09,1c0.45,0.2,0.96,0.29,1.52,0.29
			c0.31,0,0.64-0.03,0.97-0.09c0.33-0.06,0.59-0.13,0.77-0.21v-1.24c-0.17,0.06-0.4,0.12-0.67,0.16
			C138.25,220.89,137.98,220.92,137.71,220.92z"/>
		<path d="M145.98,217.6c-0.19,0.54-0.37,1.08-0.54,1.6c-0.17,0.52-0.29,0.94-0.38,1.26h-0.07c-0.05-0.28-0.12-0.57-0.21-0.88
			c-0.09-0.3-0.19-0.62-0.31-0.95c-0.12-0.33-0.24-0.67-0.37-1.03l-2.33-6.12h-1.71l4.22,10.56l-0.58,1.48
			c-0.15,0.4-0.34,0.74-0.55,1.03c-0.21,0.29-0.46,0.51-0.75,0.66c-0.29,0.15-0.64,0.23-1.03,0.23c-0.22,0-0.43-0.01-0.63-0.04
			c-0.2-0.03-0.37-0.05-0.51-0.09v1.28c0.17,0.04,0.37,0.09,0.6,0.12c0.23,0.04,0.5,0.05,0.8,0.05c0.65,0,1.21-0.13,1.67-0.39
			c0.46-0.26,0.85-0.63,1.18-1.11c0.32-0.48,0.61-1.05,0.85-1.69l4.59-12.09h-1.72L145.98,217.6z"/>
		<path d="M164.29,211.94c-0.72-0.43-1.56-0.64-2.52-0.64c-1.01,0-1.87,0.21-2.6,0.64c-0.73,0.43-1.29,1.05-1.68,1.86
			c-0.39,0.81-0.59,1.79-0.59,2.95c0,0.87,0.12,1.64,0.35,2.32c0.23,0.68,0.56,1.25,0.99,1.72c0.43,0.47,0.93,0.83,1.52,1.07
			c0.59,0.25,1.23,0.37,1.94,0.37c0.76,0,1.43-0.12,2.03-0.37c0.6-0.25,1.11-0.6,1.53-1.07c0.42-0.47,0.75-1.04,0.97-1.72
			c0.22-0.68,0.34-1.45,0.34-2.32c0-1.15-0.2-2.13-0.6-2.94C165.58,212.99,165.02,212.37,164.29,211.94z M164.59,218.94
			c-0.22,0.62-0.57,1.1-1.04,1.44c-0.47,0.34-1.07,0.51-1.8,0.51c-0.74,0-1.34-0.17-1.81-0.51c-0.47-0.34-0.81-0.82-1.04-1.44
			c-0.22-0.62-0.34-1.36-0.34-2.2c0-1.28,0.26-2.29,0.76-3.01c0.51-0.72,1.31-1.09,2.41-1.09c0.74,0,1.35,0.17,1.82,0.5
			c0.47,0.33,0.81,0.81,1.04,1.42c0.22,0.61,0.34,1.34,0.34,2.18C164.92,217.59,164.81,218.32,164.59,218.94z"/>
		<path d="M173.57,206.96c-0.72,0-1.33,0.13-1.83,0.39c-0.5,0.26-0.88,0.67-1.14,1.23c-0.26,0.55-0.39,1.27-0.39,2.16v0.7
			l-1.87,0.53v0.77h1.87v9.29h1.6v-9.29h2.63v-1.25h-2.63v-0.77c0-0.84,0.15-1.46,0.44-1.85c0.29-0.39,0.74-0.59,1.35-0.59
			c0.28,0,0.56,0.03,0.83,0.09c0.27,0.06,0.52,0.13,0.74,0.2l0.41-1.26c-0.26-0.09-0.55-0.17-0.89-0.24
			C174.34,207,173.97,206.96,173.57,206.96z"/>
		<path d="M186.08,207.92l-5.5,14.12h1.65l1.72-4.46h5.63l1.73,4.46h1.69l-5.46-14.12H186.08z M184.5,216.12l1.67-4.43
			c0.05-0.15,0.11-0.34,0.18-0.56c0.07-0.22,0.14-0.46,0.22-0.72c0.07-0.26,0.14-0.52,0.21-0.78c0.06,0.17,0.13,0.4,0.22,0.68
			c0.09,0.28,0.18,0.55,0.26,0.82c0.09,0.26,0.15,0.45,0.19,0.57l1.64,4.43H184.5z"/>
		<path d="M200.06,211.3c-0.58,0-1.09,0.08-1.51,0.24c-0.43,0.16-0.79,0.37-1.08,0.63c-0.3,0.27-0.55,0.56-0.75,0.88h-0.08
			l-0.21-1.56h-1.32v15.25h1.61v-4.33c0-0.26-0.01-0.57-0.04-0.92c-0.03-0.35-0.05-0.65-0.07-0.9h0.12c0.2,0.3,0.45,0.57,0.75,0.82
			c0.3,0.25,0.66,0.45,1.09,0.6c0.42,0.15,0.91,0.22,1.47,0.22c0.89,0,1.65-0.21,2.3-0.63c0.65-0.42,1.16-1.03,1.52-1.85
			c0.36-0.81,0.54-1.82,0.54-3.02c0-1.81-0.39-3.17-1.18-4.08C202.42,211.75,201.37,211.3,200.06,211.3z M202.41,218.89
			c-0.21,0.63-0.54,1.12-0.98,1.48c-0.44,0.35-0.98,0.53-1.63,0.53c-0.76,0-1.37-0.16-1.82-0.48c-0.45-0.32-0.77-0.79-0.97-1.4
			c-0.2-0.62-0.29-1.37-0.29-2.26v-0.31c0.01-0.85,0.12-1.55,0.33-2.11c0.2-0.56,0.53-0.98,0.98-1.26c0.45-0.28,1.03-0.42,1.76-0.42
			c1,0,1.74,0.37,2.23,1.1c0.48,0.73,0.73,1.72,0.73,2.97C202.73,217.53,202.62,218.26,202.41,218.89z"/>
		<path d="M212.5,211.3c-0.58,0-1.09,0.08-1.51,0.24c-0.43,0.16-0.79,0.37-1.08,0.63c-0.3,0.27-0.55,0.56-0.75,0.88h-0.08
			l-0.21-1.56h-1.32v15.25h1.61v-4.33c0-0.26-0.01-0.57-0.04-0.92c-0.03-0.35-0.05-0.65-0.07-0.9h0.12c0.2,0.3,0.45,0.57,0.75,0.82
			c0.3,0.25,0.66,0.45,1.09,0.6c0.42,0.15,0.91,0.22,1.47,0.22c0.89,0,1.65-0.21,2.3-0.63c0.65-0.42,1.16-1.03,1.51-1.85
			c0.36-0.81,0.54-1.82,0.54-3.02c0-1.81-0.39-3.17-1.17-4.08C214.86,211.75,213.81,211.3,212.5,211.3z M214.85,218.89
			c-0.21,0.63-0.54,1.12-0.98,1.48c-0.44,0.35-0.98,0.53-1.63,0.53c-0.76,0-1.37-0.16-1.82-0.48c-0.45-0.32-0.78-0.79-0.97-1.4
			c-0.2-0.62-0.29-1.37-0.29-2.26v-0.31c0.01-0.85,0.12-1.55,0.33-2.11s0.53-0.98,0.98-1.26c0.44-0.28,1.03-0.42,1.76-0.42
			c1,0,1.74,0.37,2.23,1.1c0.48,0.73,0.73,1.72,0.73,2.97C215.17,217.53,215.07,218.26,214.85,218.89z"/>
		<rect x="219.99" y="207.07" width="1.61" height="14.96"/>
		<rect x="225.36" y="211.49" width="1.6" height="10.54"/>
		<path d="M226.17,207.55c-0.28,0-0.5,0.08-0.69,0.25c-0.18,0.17-0.27,0.43-0.27,0.79c0,0.35,0.09,0.62,0.27,0.79
			c0.18,0.17,0.41,0.26,0.69,0.26c0.26,0,0.49-0.09,0.68-0.26c0.19-0.17,0.28-0.44,0.28-0.79c0-0.36-0.09-0.62-0.28-0.79
			C226.66,207.64,226.44,207.55,226.17,207.55z"/>
		<path d="M237.09,211.9c-0.64-0.4-1.41-0.6-2.31-0.6c-0.94,0-1.76,0.22-2.46,0.67c-0.7,0.45-1.23,1.09-1.62,1.92
			c-0.38,0.83-0.57,1.81-0.57,2.95c0,1.16,0.21,2.14,0.62,2.94c0.42,0.8,1,1.41,1.76,1.82c0.75,0.41,1.64,0.62,2.65,0.62
			c0.71,0,1.33-0.05,1.85-0.16c0.52-0.11,1.05-0.28,1.58-0.52v-1.4c-0.55,0.24-1.08,0.42-1.6,0.54c-0.51,0.12-1.1,0.18-1.77,0.18
			c-1.08,0-1.92-0.32-2.52-0.97c-0.6-0.65-0.9-1.59-0.92-2.83h7.28v-0.99c0-0.95-0.17-1.79-0.51-2.5
			C238.22,212.85,237.73,212.29,237.09,211.9z M231.82,215.78c0.1-1,0.4-1.78,0.9-2.34c0.51-0.56,1.19-0.84,2.04-0.84
			c0.6,0,1.1,0.13,1.48,0.4c0.39,0.27,0.67,0.64,0.86,1.12c0.19,0.48,0.29,1.03,0.29,1.66H231.82z"/>
		<path d="M249.25,211.29c0,0.22,0.01,0.5,0.04,0.85c0.03,0.35,0.05,0.62,0.08,0.82h-0.12c-0.21-0.31-0.46-0.59-0.76-0.84
			c-0.3-0.25-0.66-0.44-1.08-0.59c-0.42-0.15-0.9-0.22-1.46-0.22c-1.32,0-2.38,0.46-3.17,1.39c-0.8,0.93-1.19,2.3-1.19,4.11
			c0,1.8,0.39,3.15,1.17,4.06c0.78,0.91,1.84,1.37,3.17,1.37c0.57,0,1.07-0.08,1.49-0.23c0.42-0.15,0.78-0.35,1.09-0.61
			c0.3-0.26,0.56-0.54,0.75-0.86h0.07l0.24,1.5h1.29v-14.96h-1.6V211.29z M249.27,217.08c0,1.26-0.23,2.21-0.7,2.86
			c-0.47,0.64-1.27,0.96-2.4,0.96c-0.99,0-1.72-0.35-2.21-1.06s-0.73-1.71-0.73-3c0-1.3,0.24-2.33,0.73-3.08
			c0.49-0.75,1.22-1.13,2.2-1.13c1.17,0,1.98,0.36,2.43,1.08c0.45,0.72,0.67,1.75,0.67,3.09V217.08z"/>
		<path d="M266.53,215.22c-0.58-0.34-1.28-0.66-2.11-0.96c-0.76-0.28-1.36-0.54-1.82-0.79c-0.46-0.25-0.79-0.54-1-0.87
			c-0.21-0.33-0.31-0.74-0.31-1.23c0-0.44,0.11-0.82,0.33-1.14c0.22-0.32,0.53-0.57,0.95-0.75c0.41-0.18,0.92-0.26,1.52-0.26
			c0.6,0,1.19,0.07,1.76,0.21c0.57,0.14,1.1,0.32,1.61,0.53l0.51-1.4c-0.53-0.24-1.12-0.43-1.76-0.57
			c-0.64-0.14-1.33-0.21-2.08-0.21c-0.88,0-1.66,0.14-2.33,0.43c-0.68,0.29-1.2,0.7-1.59,1.23c-0.38,0.54-0.57,1.18-0.57,1.93
			c0,0.55,0.08,1.03,0.24,1.45c0.16,0.42,0.39,0.79,0.7,1.12c0.31,0.32,0.69,0.61,1.14,0.86c0.45,0.25,0.98,0.49,1.58,0.7
			c0.85,0.3,1.51,0.58,2.01,0.85c0.49,0.27,0.84,0.56,1.05,0.88c0.21,0.32,0.32,0.73,0.32,1.21c0,0.5-0.13,0.93-0.38,1.28
			c-0.25,0.36-0.62,0.63-1.11,0.82c-0.49,0.19-1.08,0.28-1.79,0.28c-0.76,0-1.48-0.09-2.17-0.26c-0.69-0.17-1.28-0.35-1.76-0.55
			v1.57c0.3,0.14,0.65,0.26,1.05,0.36c0.4,0.1,0.83,0.17,1.31,0.22c0.47,0.05,0.98,0.08,1.51,0.08c1.01,0,1.88-0.15,2.62-0.46
			c0.74-0.31,1.32-0.75,1.74-1.34c0.41-0.59,0.62-1.3,0.62-2.13c0-0.74-0.15-1.36-0.45-1.84
			C267.54,215.97,267.11,215.56,266.53,215.22z"/>
		<path d="M273.83,213.17c0.48-0.31,1.09-0.47,1.82-0.47c0.37,0,0.76,0.05,1.18,0.15c0.42,0.1,0.79,0.22,1.11,0.35l0.48-1.34
			c-0.31-0.16-0.72-0.29-1.21-0.4c-0.49-0.11-1-0.16-1.52-0.16c-0.95,0-1.81,0.2-2.56,0.59c-0.75,0.39-1.34,0.99-1.76,1.8
			c-0.43,0.81-0.64,1.85-0.64,3.13c0,1.22,0.2,2.23,0.61,3.03c0.4,0.8,0.97,1.4,1.69,1.79c0.72,0.39,1.56,0.59,2.51,0.59
			c0.6,0,1.11-0.05,1.54-0.14c0.43-0.1,0.83-0.23,1.18-0.41v-1.42c-0.36,0.16-0.77,0.3-1.22,0.42c-0.45,0.12-0.95,0.18-1.51,0.18
			c-0.7,0-1.28-0.16-1.75-0.48c-0.47-0.32-0.81-0.78-1.05-1.38c-0.23-0.6-0.35-1.33-0.35-2.18c0-0.89,0.12-1.64,0.36-2.25
			C272.98,213.94,273.35,213.48,273.83,213.17z"/>
		<rect x="281.14" y="211.49" width="1.6" height="10.54"/>
		<path d="M281.96,207.55c-0.28,0-0.5,0.08-0.69,0.25c-0.18,0.17-0.27,0.43-0.27,0.79c0,0.35,0.09,0.62,0.27,0.79
			c0.18,0.17,0.41,0.26,0.69,0.26c0.26,0,0.49-0.09,0.68-0.26c0.19-0.17,0.28-0.44,0.28-0.79c0-0.36-0.09-0.62-0.28-0.79
			C282.45,207.64,282.22,207.55,281.96,207.55z"/>
		<path d="M292.87,211.9c-0.64-0.4-1.41-0.6-2.31-0.6c-0.94,0-1.76,0.22-2.46,0.67c-0.7,0.45-1.23,1.09-1.62,1.92
			c-0.38,0.83-0.57,1.81-0.57,2.95c0,1.16,0.21,2.14,0.62,2.94c0.42,0.8,1,1.41,1.76,1.82c0.75,0.41,1.64,0.62,2.65,0.62
			c0.71,0,1.33-0.05,1.85-0.16c0.52-0.11,1.05-0.28,1.58-0.52v-1.4c-0.55,0.24-1.08,0.42-1.6,0.54c-0.51,0.12-1.1,0.18-1.77,0.18
			c-1.08,0-1.92-0.32-2.52-0.97c-0.6-0.65-0.9-1.59-0.92-2.83h7.28v-0.99c0-0.95-0.17-1.79-0.51-2.5
			C294,212.85,293.51,212.29,292.87,211.9z M287.6,215.78c0.1-1,0.4-1.78,0.9-2.34c0.51-0.56,1.19-0.84,2.04-0.84
			c0.6,0,1.1,0.13,1.48,0.4c0.39,0.27,0.67,0.64,0.86,1.12c0.19,0.48,0.29,1.03,0.29,1.66H287.6z"/>
		<path d="M302.95,211.3c-0.47,0-0.93,0.07-1.36,0.2c-0.43,0.13-0.82,0.32-1.16,0.58c-0.35,0.25-0.63,0.57-0.86,0.94h-0.09
			l-0.24-1.52h-1.29v10.54h1.6v-5.52c0-1.26,0.24-2.21,0.71-2.88c0.47-0.66,1.29-0.99,2.46-0.99c0.83,0,1.44,0.22,1.84,0.65
			c0.4,0.44,0.6,1.09,0.6,1.97v6.76h1.58v-6.87c0-1.35-0.32-2.33-0.96-2.95C305.15,211.61,304.2,211.3,302.95,211.3z"/>
		<path d="M312.94,213.17c0.48-0.31,1.09-0.47,1.82-0.47c0.37,0,0.76,0.05,1.18,0.15c0.42,0.1,0.79,0.22,1.11,0.35l0.48-1.34
			c-0.31-0.16-0.72-0.29-1.21-0.4c-0.49-0.11-1-0.16-1.52-0.16c-0.95,0-1.81,0.2-2.56,0.59c-0.75,0.39-1.34,0.99-1.76,1.8
			c-0.43,0.81-0.64,1.85-0.64,3.13c0,1.22,0.2,2.23,0.61,3.03c0.4,0.8,0.97,1.4,1.69,1.79c0.72,0.39,1.56,0.59,2.51,0.59
			c0.6,0,1.11-0.05,1.54-0.14c0.43-0.1,0.83-0.23,1.18-0.41v-1.42c-0.36,0.16-0.77,0.3-1.22,0.42c-0.45,0.12-0.95,0.18-1.51,0.18
			c-0.7,0-1.28-0.16-1.75-0.48c-0.47-0.32-0.81-0.78-1.05-1.38c-0.23-0.6-0.35-1.33-0.35-2.18c0-0.89,0.12-1.64,0.36-2.25
			C312.1,213.94,312.46,213.48,312.94,213.17z"/>
		<path d="M326.62,211.9c-0.64-0.4-1.41-0.6-2.31-0.6c-0.94,0-1.76,0.22-2.46,0.67c-0.7,0.45-1.23,1.09-1.62,1.92
			c-0.38,0.83-0.57,1.81-0.57,2.95c0,1.16,0.21,2.14,0.62,2.94c0.42,0.8,1,1.41,1.76,1.82c0.75,0.41,1.64,0.62,2.65,0.62
			c0.71,0,1.33-0.05,1.85-0.16c0.52-0.11,1.05-0.28,1.58-0.52v-1.4c-0.55,0.24-1.08,0.42-1.6,0.54c-0.51,0.12-1.1,0.18-1.77,0.18
			c-1.08,0-1.92-0.32-2.52-0.97c-0.6-0.65-0.9-1.59-0.92-2.83h7.28v-0.99c0-0.95-0.17-1.79-0.51-2.5
			C327.75,212.85,327.26,212.29,326.62,211.9z M321.35,215.78c0.1-1,0.4-1.78,0.9-2.34c0.51-0.56,1.19-0.84,2.04-0.84
			c0.6,0,1.1,0.13,1.48,0.4c0.38,0.27,0.67,0.64,0.86,1.12c0.19,0.48,0.29,1.03,0.29,1.66H321.35z"/>
		<path d="M338.14,217.73c-0.26-0.37-0.63-0.68-1.11-0.94c-0.48-0.26-1.05-0.51-1.71-0.75c-0.66-0.25-1.19-0.47-1.6-0.65
			c-0.4-0.19-0.7-0.38-0.88-0.6c-0.18-0.21-0.27-0.48-0.27-0.81c0-0.42,0.2-0.76,0.59-1c0.39-0.24,0.96-0.36,1.7-0.36
			c0.51,0,1.02,0.06,1.51,0.19c0.49,0.13,0.96,0.29,1.39,0.47l0.54-1.28c-0.48-0.21-1-0.38-1.55-0.5c-0.55-0.13-1.15-0.19-1.78-0.19
			c-1.17,0-2.12,0.24-2.84,0.72c-0.72,0.48-1.08,1.16-1.08,2.05c0,0.58,0.13,1.06,0.4,1.42c0.27,0.36,0.64,0.67,1.13,0.93
			c0.49,0.25,1.07,0.51,1.75,0.76c0.68,0.25,1.21,0.48,1.6,0.69c0.39,0.21,0.66,0.42,0.82,0.64c0.16,0.22,0.25,0.48,0.25,0.76
			c0,0.51-0.21,0.91-0.61,1.2c-0.41,0.29-1.07,0.44-1.98,0.44c-0.62,0-1.23-0.09-1.83-0.26c-0.6-0.17-1.11-0.36-1.54-0.58v1.47
			c0.4,0.21,0.87,0.38,1.41,0.49c0.54,0.12,1.18,0.17,1.91,0.17c0.87,0,1.61-0.12,2.24-0.35c0.63-0.23,1.11-0.58,1.44-1.03
			c0.34-0.46,0.51-1.02,0.51-1.7C338.53,218.57,338.4,218.1,338.14,217.73z"/>
	</g>
</g>
</svg>
